# xmcd
#
# Track frame offsets: 
#        150
#        13402
#        23459
#        34142
#        45963
#        56583
#        71046
#        88540
#        110288
#        122758
#        137328
#        152064
#
# Disc length: 2148 seconds
#
# Revision: 0
# Processed by: cddbd v1.4PL0 Copyright (c) Steve Scherf et al.
# Submitted via: ExactAudioCopy v0.90b4
#
DISCID=9108620c
DTITLE=Songs of False Hope and High Values - Sally Timms
DYEAR=2002
DGENRE=Country
TTITLE0=Horses
TTITLE1=Watching the Horizon
TTITLE2=Anything Can Happen
TTITLE3=Blues Eyes Crying in the Rain
TTITLE4=I Picked Up the Pieces
TTITLE5=Dark Sun
TTITLE6=Down From Dover
TTITLE7=Joshua Gone Barbados
TTITLE8=Blessings
TTITLE9=Hank Signs His Contrack
TTITLE10=Randwick Bells
TTITLE11=Blow the Man Down
EXTD=
EXTT0=
EXTT1=
EXTT2=
EXTT3=
EXTT4=
EXTT5=
EXTT6=
EXTT7=
EXTT8=
EXTT9=
EXTT10=
EXTT11=
PLAYORDER=
